<svg width="640" height="480" viewBox="0 0 1513 1114" fill="none" xmlns="http://www.w3.org/2000/svg">
<rect x="2.5" y="2.5" width="1498" height="905" rx="18.5" fill="white" stroke="#F6F8FA" stroke-width="5"/>
<rect x="965.738" y="154.312" width="477.526" height="254.606" rx="14" fill="#9ADEFE"/>
<path d="M1159.81 245.325H1163.08V222.859H1159.81C1157.32 222.859 1154.93 223.845 1153.17 225.599C1151.41 227.352 1150.42 229.731 1150.42 232.211V235.95C1150.42 237.18 1150.66 238.399 1151.13 239.536C1151.6 240.673 1152.29 241.707 1153.16 242.578C1154.04 243.448 1155.07 244.139 1156.21 244.611C1157.36 245.082 1158.58 245.325 1159.81 245.325V245.325Z" fill="#DFE6F5"/>
<path d="M1163.56 245.325H1162.6C1161.27 245.325 1160.2 244.296 1160.2 243.027V225.157C1160.2 223.888 1161.27 222.859 1162.6 222.859H1163.56C1164.88 222.859 1165.95 223.888 1165.95 225.157V243.027C1165.95 244.296 1164.88 245.325 1163.56 245.325Z" fill="#535461"/>
<g opacity="0.1">
<path opacity="0.1" d="M1159.86 245.487H1163.15L1163.15 222.72H1159.86C1157.35 222.72 1154.94 223.719 1153.17 225.496C1151.39 227.274 1150.4 229.684 1150.4 232.198V235.987C1150.39 237.234 1150.64 238.468 1151.11 239.621C1151.58 240.773 1152.28 241.821 1153.16 242.703C1154.04 243.586 1155.08 244.286 1156.23 244.764C1157.38 245.242 1158.62 245.487 1159.86 245.487V245.487Z" fill="black"/>
<path opacity="0.1" d="M1163.62 245.487H1162.68C1161.4 245.487 1160.36 244.446 1160.36 243.161V225.067C1160.36 223.781 1161.4 222.74 1162.68 222.74H1163.62C1164.9 222.74 1165.94 223.781 1165.94 225.067V243.161C1165.94 244.446 1164.9 245.487 1163.62 245.487Z" fill="black"/>
</g>
<path d="M1158.47 234.956H1216.01V294.287H1158.47V234.956Z" fill="#865A61"/>
<path opacity="0.1" d="M1158.47 226.316H1216.01V286.223H1158.47V226.316Z" fill="black"/>
<path d="M1160.2 284.377L1163.68 309.638L1165.32 321.512L1165.92 325.872L1170.98 335.714L1180.26 353.775L1198.17 355.923L1229.67 311.562C1229.67 311.562 1246.16 280.086 1221.09 282.944C1207.03 284.551 1203.68 271.982 1203.43 260.63C1203.37 254.915 1203.89 249.208 1204.98 243.597L1179.91 255.76C1180.49 258.471 1180.93 260.963 1181.22 263.234C1182.44 272.527 1181.43 278.321 1179.31 281.832C1173.67 291.183 1160.2 284.377 1160.2 284.377Z" fill="#FCD7BE"/>
<path opacity="0.1" d="M1179.76 255.751C1180.35 258.461 1180.79 260.952 1181.09 263.222C1183.72 263.961 1186.43 264.335 1189.16 264.334C1194.19 264.342 1199.13 263.064 1203.51 260.623C1203.45 254.91 1203.97 249.205 1205.08 243.597L1179.76 255.751Z" fill="black"/>
<path d="M1189.25 263.758C1173.21 263.758 1160.2 250.734 1160.2 234.668C1160.2 218.602 1173.21 205.579 1189.25 205.579C1205.3 205.579 1218.31 218.602 1218.31 234.668C1218.31 250.734 1205.3 263.758 1189.25 263.758Z" fill="#F8D4B9"/>
<path d="M1150.43 399.592L1269.51 408.918L1250.21 386.342C1229.49 373.658 1229.67 356.221 1232.42 345.406C1233.27 341.94 1234.56 338.597 1236.26 335.457L1195.1 335.651H1194.75L1191.37 343.355L1191.22 343.703L1188.7 349.434L1180.12 334.025L1177.13 329.204L1175.46 326.495C1175.46 326.495 1150.79 320.76 1150.43 335.453C1150.39 337.14 1150.46 338.828 1150.63 340.507C1151.86 352.333 1158.31 360.196 1163.66 365.555C1169.74 371.642 1150.43 399.592 1150.43 399.592Z" fill="#EC7580"/>
<path d="M1164.65 367.754C1165.52 371.218 1163.32 377.173 1160.4 383.02C1174.39 384.521 1189.74 383.739 1189.74 383.739L1205.48 388.02L1249.8 400.853C1251.73 398.363 1253.28 395.233 1254.55 391.707L1250.16 386.596C1236.34 378.173 1231.82 367.646 1231.16 358.377C1230.9 354.17 1231.31 349.948 1232.38 345.871C1233.24 342.426 1234.53 339.103 1236.22 335.982L1195.08 336.175H1194.73L1191.35 343.839L1191.19 344.185L1188.68 349.886L1180.1 334.558L1177.12 329.762L1175.46 327.068C1175.46 327.068 1150.79 321.355 1150.43 335.982C1150.39 337.66 1150.46 339.34 1150.63 341.009C1151.86 352.773 1158.31 360.594 1163.66 365.925C1164.15 366.432 1164.49 367.065 1164.65 367.754V367.754Z" fill="#EC7580"/>
<path d="M1072.19 386.705C1072.9 395.319 1093.54 383.833 1093.54 383.833C1093.54 383.833 1099.94 381.677 1121.64 367.679C1132.66 360.573 1141.35 350.337 1146.62 338.259C1147.45 336.392 1148.14 334.467 1148.69 332.498L1133.74 321.361L1129.38 328.087L1114.89 350.436L1093.54 364.779C1093.54 364.779 1071.48 378.091 1072.19 386.705Z" fill="#FEDAC0"/>
<path opacity="0.1" d="M1129.71 328.013C1129.98 328.396 1130.46 328.568 1131.2 328.461C1138.2 327.396 1146.24 337.683 1146.24 337.683C1146.24 337.683 1146.39 337.821 1146.65 338.066C1147.47 336.221 1148.15 334.32 1148.69 332.375L1134 321.361L1129.71 328.013Z" fill="black"/>
<path opacity="0.1" d="M1150.63 341.338C1154.02 343.247 1158.69 344.617 1162.33 340.944C1168.62 334.586 1179.65 335.432 1180.34 335.472C1179.21 335.314 1178.21 332.976 1177.37 329.842L1175.68 327.086C1175.68 327.086 1150.79 321.26 1150.43 336.22C1150.39 337.928 1150.46 339.638 1150.63 341.338Z" fill="black"/>
<path opacity="0.1" d="M1163.65 309.264L1165.87 325.756L1170.86 335.762C1173.95 334.947 1177.15 334.638 1180.34 334.847C1176.82 334.348 1174.55 311.75 1174.55 311.75L1174.35 311.703L1163.65 309.264Z" fill="black"/>
<path d="M1130.97 327.673C1138.13 326.6 1146.36 336.968 1146.36 336.968C1146.36 336.968 1156.03 346.264 1162.47 339.829C1168.71 333.595 1179.66 334.424 1180.34 334.463C1176.78 333.969 1174.48 311.754 1174.48 311.754L1174.27 311.707L1139.92 304.08C1139.92 304.08 1137.87 307.214 1135.56 311.206C1131.39 318.397 1126.36 328.364 1130.97 327.673Z" fill="#EC7580"/>
<path opacity="0.1" d="M1139.48 313.574C1139.12 314.304 1145.22 317.955 1148.09 316.859C1150.96 315.763 1158.14 321.59 1158.86 322.335C1159.58 323.08 1175.73 321.239 1175.73 321.239C1175.06 318.149 1174.58 315.021 1174.29 311.871L1139.83 304.08C1139.83 304.08 1137.78 307.281 1135.46 311.358C1137.6 312.253 1139.65 313.215 1139.48 313.574Z" fill="black"/>
<path opacity="0.1" d="M1160.2 284.154L1163.66 309.464L1165.29 321.361C1170.06 321.001 1175.85 320.355 1175.85 320.355C1175.85 320.355 1169.8 294.909 1179.76 281.653C1179.76 281.653 1179.55 281.653 1179.17 281.615C1173.58 290.973 1160.2 284.154 1160.2 284.154Z" fill="black"/>
<path d="M1179.76 281.802C1179.76 281.802 1161.42 280.384 1154.23 285.35C1147.04 290.316 1136.61 305.222 1136.61 305.222L1130.86 308.77C1130.86 308.77 1139.85 311.962 1139.49 312.674C1139.12 313.387 1145.24 316.931 1148.11 315.866C1150.99 314.801 1158.18 320.464 1158.9 321.188C1159.62 321.913 1175.8 320.123 1175.8 320.123C1175.8 320.123 1169.69 294.93 1179.76 281.802Z" fill="#EC7580"/>
<path opacity="0.1" d="M1160.78 383.202C1174.71 384.688 1190 383.915 1190 383.915L1205.68 388.148L1249.82 400.853C1251.74 398.388 1253.28 395.29 1254.55 391.799L1250.18 386.739C1236.41 378.401 1231.91 367.979 1231.26 358.803C1230.08 367.929 1229.88 376.149 1229.88 376.149L1212.08 374.385L1186.22 368.288C1184.44 367.867 1182.61 367.656 1180.78 367.659C1177.42 367.659 1171.42 367.731 1165.02 368.074C1165.87 371.507 1163.68 377.406 1160.78 383.202Z" fill="black"/>
<path opacity="0.1" d="M1140.94 378.646C1149.14 388.237 1191.21 386.108 1191.21 386.108L1206.9 390.37L1251.12 403.157C1251.31 402.908 1251.5 402.655 1251.68 402.39L1148.79 372.052C1142.22 373.371 1138.19 375.428 1140.94 378.646Z" fill="black"/>
<path d="M1140.94 377.893C1149.14 387.553 1191.19 385.409 1191.19 385.409L1206.88 389.698L1251.07 402.581C1261.46 389.056 1261.23 356.825 1260.67 343.788C1260.51 340.287 1260.34 338.169 1260.34 338.169C1260.34 338.169 1245.37 328.864 1238.6 338.169C1237.39 339.827 1236.38 342.145 1235.52 344.835C1231.59 357.235 1231.11 377.53 1231.11 377.53L1213.29 375.741L1187.4 369.558C1185.61 369.132 1183.79 368.918 1181.95 368.92C1171.22 368.951 1133.9 369.6 1140.94 377.893Z" fill="#FFDCC2"/>
<path opacity="0.1" d="M1235.57 344.704C1237.86 344.216 1240.64 344.322 1244.4 345.895C1251.94 349.073 1257.68 348.367 1257.68 348.367C1257.68 348.367 1257.22 344.761 1260.88 343.666C1260.73 340.209 1260.55 338.117 1260.55 338.117C1260.55 338.117 1245.48 328.928 1238.66 338.117C1237.46 339.755 1236.43 342.044 1235.57 344.704Z" fill="black"/>
<path opacity="0.1" d="M1191.27 344.323C1191.51 344.372 1194.71 344.96 1200.89 343.625C1207.3 342.237 1209.8 345.013 1213.36 346.404C1216.92 347.796 1226.17 348.49 1229.75 347.102C1230.59 346.772 1231.43 346.352 1232.33 345.977C1233.18 342.619 1234.46 339.38 1236.14 336.338L1195.13 336.525L1191.41 343.993L1191.27 344.323Z" fill="black"/>
<path d="M1191.27 343.535C1191.27 343.535 1194.48 344.244 1200.91 342.826C1207.34 341.409 1209.84 344.244 1213.41 345.665C1216.98 347.086 1226.27 347.795 1229.84 346.374C1233.41 344.952 1236.98 342.118 1244.5 345.309C1252.01 348.5 1257.71 347.791 1257.71 347.791C1257.71 347.791 1257 342.114 1264.49 342.811C1271.99 343.508 1276.99 339.972 1276.99 339.972L1269.02 321.691L1266.63 316.201L1206.88 312.144H1206.59L1191.27 343.535Z" fill="#EC7580"/>
<path opacity="0.1" d="M1201.05 326.497C1204.97 320.117 1225.62 325.789 1225.62 325.789C1225.62 325.789 1235.59 328.626 1237.73 323.309C1239.87 317.993 1255.16 321.522 1255.16 321.522C1255.16 321.522 1266.25 325.663 1268.94 321.69L1266.55 316.205L1207 312.144L1201.05 326.497Z" fill="black"/>
<path d="M1218.17 284.243C1218.17 284.243 1237.78 280.289 1247.04 285.322C1256.31 290.355 1263.44 301.491 1263.44 301.491L1276.99 314.067C1276.99 314.067 1271.65 316.581 1269.15 320.892C1266.66 325.203 1255.24 320.892 1255.24 320.892C1255.24 320.892 1239.91 317.299 1237.77 322.689C1235.63 328.078 1225.65 325.203 1225.65 325.203C1225.65 325.203 1204.97 319.452 1201.05 325.921L1218.17 284.243Z" fill="#EC7580"/>
<path opacity="0.1" d="M1195.3 192.913C1197.96 192.466 1200.7 192.03 1203.34 192.605C1207.69 193.549 1211 197.077 1213.44 200.794C1215.89 204.511 1217.78 208.637 1220.8 211.911C1222.81 214.105 1225.29 215.867 1227.09 218.242C1229.74 221.739 1230.66 226.2 1231.51 230.503C1232.76 236.819 1234.01 243.227 1233.46 249.655C1233.18 252.878 1232.45 256.051 1232.28 259.294C1231.93 265.806 1233.85 272.199 1235.75 278.438C1237.06 282.749 1238.42 287.14 1241.02 290.823C1242.74 293.263 1244.95 295.307 1247.06 297.424C1247.57 297.855 1247.95 298.416 1248.17 299.047C1248.62 300.89 1246.4 302.132 1244.7 302.965C1239.49 305.559 1236.08 310.622 1232.03 314.794C1227.99 318.966 1222.2 322.548 1216.63 320.875C1214.98 320.377 1213.42 319.432 1211.7 319.463C1210.54 319.483 1209.43 319.953 1208.33 320.339C1205.6 321.299 1202.72 321.781 1199.82 321.765C1199.18 321.82 1198.54 321.686 1197.97 321.38C1197.11 320.797 1196.95 319.625 1196.86 318.592C1196.32 312.107 1195.78 305.598 1196.14 299.101C1196.97 284.387 1210.57 267.368 1205.4 253.561C1203.15 247.538 1199.04 242.356 1196.76 236.345C1194.37 230.01 1185.91 224.866 1184.23 218.3C1184.04 217.559 1183.78 216.757 1183.14 216.372C1182.24 215.824 1181.08 216.302 1180.22 216.896C1175.36 220.251 1173.77 226.559 1172 232.196C1170.57 236.736 1168.81 241.162 1166.71 245.436C1165.56 247.75 1163.07 250.43 1160.9 249.026C1161.99 258.774 1168.32 267.287 1169.75 276.988C1171.14 286.443 1167.76 296.105 1169.07 305.567C1169.94 311.659 1172.7 317.325 1176.96 321.761C1172.15 322.717 1167.2 322.762 1162.37 321.892C1157.48 321.009 1152.24 318.692 1150.47 314.042C1148.54 308.926 1151.53 303.435 1153.04 298.176C1156.68 285.533 1156.4 270.58 1155.24 257.474C1154.06 243.998 1152.27 232.2 1155.29 219.013C1156.03 215.778 1156.79 212.516 1158.21 209.516C1161.19 203.212 1167.33 198.701 1174.06 197.112C1177.53 196.295 1181.07 197.563 1184.3 196.962C1185.93 196.657 1187.39 195.099 1188.97 194.467C1191 193.638 1193.17 193.268 1195.3 192.913Z" fill="black"/>
<path d="M1150.48 313.428C1152.25 318.1 1157.48 320.428 1162.38 321.315C1167.21 322.186 1172.16 322.142 1176.97 321.183C1172.71 316.725 1169.95 311.034 1169.09 304.914C1167.77 295.404 1171.15 285.696 1169.76 276.202C1168.33 266.452 1162 257.899 1160.91 248.106C1163.08 249.516 1165.59 246.835 1166.73 244.5C1168.82 240.205 1170.59 235.759 1172.02 231.197C1173.79 225.534 1175.37 219.189 1180.24 215.826C1181.1 215.23 1182.26 214.75 1183.15 215.304C1183.8 215.691 1184.06 216.508 1184.25 217.24C1185.92 223.826 1194.38 229.001 1196.78 235.365C1199.06 241.405 1203.17 246.599 1205.42 252.661C1210.57 266.529 1196.97 283.628 1196.16 298.41C1195.8 304.937 1196.34 311.48 1196.88 317.991C1196.97 319.033 1197.13 320.211 1197.99 320.796C1198.56 321.103 1199.2 321.238 1199.84 321.183C1202.73 321.201 1205.6 320.719 1208.32 319.758C1209.42 319.37 1210.53 318.898 1211.69 318.878C1213.41 318.851 1214.98 319.8 1216.63 320.296C1222.19 321.977 1227.99 318.379 1232.03 314.187C1236.07 309.996 1239.5 304.918 1244.69 302.326C1246.4 301.474 1248.62 300.242 1248.17 298.387C1247.95 297.755 1247.57 297.193 1247.06 296.76C1244.95 294.633 1242.74 292.576 1241.02 290.128C1238.42 286.429 1237.06 282.016 1235.74 277.686C1233.84 271.418 1231.91 264.995 1232.27 258.453C1232.44 255.21 1233.17 252.022 1233.46 248.768C1234.01 242.323 1232.75 235.877 1231.5 229.532C1230.66 225.209 1229.73 220.727 1227.08 217.213C1225.28 214.827 1222.81 213.057 1220.79 210.853C1217.77 207.564 1215.88 203.419 1213.44 199.681C1210.99 195.943 1207.67 192.402 1203.32 191.453C1200.69 190.876 1197.95 191.318 1195.28 191.763C1193.16 192.123 1190.98 192.495 1188.97 193.313C1187.39 193.948 1185.93 195.517 1184.31 195.815C1181.08 196.423 1177.52 195.149 1174.06 195.97C1167.33 197.562 1161.19 202.094 1158.21 208.428C1157.62 209.681 1157.13 210.976 1156.74 212.301C1156.16 214.161 1155.73 216.063 1155.3 217.961C1155.2 218.348 1155.12 218.767 1155.03 219.166C1152.39 231.778 1154.09 240.963 1155.25 254.083C1156.4 267.203 1156.68 284.782 1153.05 297.469C1151.53 302.768 1148.54 308.288 1150.48 313.428Z" fill="#616362"/>
<path opacity="0.05" d="M1191.84 335.762C1191.84 335.762 1188.94 340.512 1188.94 343.826C1188.94 343.826 1186.76 335.762 1184.94 335.762" fill="black"/>
<path opacity="0.1" d="M1226.36 371.509C1226.36 371.756 1226.44 371.997 1226.59 372.198C1226.74 372.399 1226.95 372.549 1227.19 372.628C1227.71 372.113 1228.2 371.571 1228.66 371.003C1228.55 370.76 1228.35 370.562 1228.1 370.444C1227.86 370.326 1227.57 370.293 1227.31 370.352C1227.04 370.411 1226.8 370.558 1226.63 370.769C1226.45 370.979 1226.36 371.241 1226.36 371.509V371.509Z" fill="black"/>
<path opacity="0.1" d="M1201.62 371.003C1201.97 371.571 1202.34 372.114 1202.73 372.628C1202.87 372.566 1203 372.459 1203.1 372.317C1203.21 372.175 1203.28 372.001 1203.32 371.812C1203.36 371.623 1203.36 371.425 1203.33 371.234C1203.29 371.044 1203.22 370.867 1203.12 370.721C1203.02 370.575 1202.9 370.463 1202.76 370.395C1202.61 370.328 1202.46 370.308 1202.31 370.336C1202.17 370.364 1202.03 370.439 1201.9 370.556C1201.78 370.672 1201.69 370.826 1201.62 371.003V371.003Z" fill="black"/>
<path opacity="0.2" d="M1148.12 398.549C1147.8 398.549 1147.54 398.42 1147.54 398.261C1147.54 398.102 1147.8 397.973 1148.12 397.973C1148.44 397.973 1148.69 398.102 1148.69 398.261C1148.69 398.42 1148.44 398.549 1148.12 398.549Z" fill="black"/>
<path d="M1155.02 219.281C1160.91 208.549 1172.87 201.191 1186.62 201.191C1206.19 201.191 1222.12 216.079 1222.12 234.38H1224.64C1224.64 214.688 1207.59 198.666 1186.64 198.666C1174.51 198.666 1163.69 204.034 1156.73 212.378C1156.16 214.248 1155.72 216.161 1155.29 218.07C1155.19 218.479 1155.1 218.88 1155.02 219.281Z" fill="#535461"/>
<path d="M1219.42 224.012H1216.01V246.477H1219.42C1222.02 246.477 1224.52 245.492 1226.36 243.738C1228.21 241.984 1229.24 239.605 1229.24 237.125V233.386C1229.24 232.156 1228.99 230.938 1228.5 229.8C1228.01 228.663 1227.28 227.629 1226.37 226.759C1225.46 225.888 1224.38 225.197 1223.18 224.726C1221.99 224.254 1220.71 224.012 1219.42 224.012V224.012Z" fill="#DFE6F5"/>
<path d="M1215.86 224.012H1216.73C1217.92 224.012 1218.88 225.04 1218.88 226.31V244.179C1218.88 245.448 1217.92 246.477 1216.73 246.477H1215.86C1214.67 246.477 1213.71 245.448 1213.71 244.179V226.31C1213.71 225.04 1214.67 224.012 1215.86 224.012Z" fill="#535461"/>
<rect x="1435.5" y="26.5" width="39" height="33" rx="6.5" fill="white" stroke="#B9B9B9"/>
<rect x="1079" y="444" width="234" height="38" rx="19" fill="#4ABF9C" fill-opacity="0.9"/>
<rect x="1039" y="768" width="315" height="38" rx="19" fill="#4ABF9C" fill-opacity="0.9"/>
<rect x="1122" y="706" width="149" height="38" rx="19" fill="#4ABF9C" fill-opacity="0.9"/>
<line x1="896.5" y1="94" x2="896.5" y2="912" stroke="#B9B9B9"/>
<line x1="1503" y1="94.5" x2="-4.34857e-08" y2="94.4999" stroke="#B9B9B9"/>
<circle cx="1002" cy="549" r="22" fill="#9ADEFE"/>
<circle cx="1002" cy="639" r="22" fill="#FFC574"/>
<rect x="1065" y="542" width="201" height="14" fill="#F6F8FA"/>
<rect x="1065" y="632" width="201" height="14" fill="#F6F8FA"/>
<rect x="944.5" y="831.5" width="482" height="56" rx="16.5" fill="white" stroke="#B9B9B9"/>
<circle cx="1394.5" cy="859.5" r="14.5" fill="#C4C4C4" fill-opacity="0.3"/>
<rect x="78" y="391" width="116" height="226" fill="#F6F8FA"/>
<rect x="624" y="343" width="116" height="274" fill="#F6F8FA"/>
<rect x="452" y="418" width="116" height="199" fill="#F6F8FA"/>
<rect x="265" y="520" width="116" height="97" fill="#F6F8FA"/>
<rect x="197" y="862" width="758" height="249" rx="20" fill="white" stroke="#F6F8FA" stroke-width="6"/>
<circle cx="354" cy="986" r="59" fill="#F6F8FA"/>
<circle cx="816" cy="986" r="59" fill="#F6F8FA"/>
<circle cx="661" cy="986" r="59" fill="#F6F8FA"/>
<circle cx="505" cy="986" r="59" fill="#F6F8FA"/>
<path d="M364.207 999.641H342.762L337.945 1013H330.984L350.531 961.812H356.438L376.02 1013H369.094L364.207 999.641ZM344.801 994.086H362.203L353.484 970.145L344.801 994.086Z" fill="black" fill-opacity="0.6"/>
<path d="M492.941 1013V961.812H509.676C515.23 961.812 519.402 962.961 522.191 965.258C525.004 967.555 526.41 970.953 526.41 975.453C526.41 977.844 525.73 979.965 524.371 981.816C523.012 983.645 521.16 985.062 518.816 986.07C521.582 986.844 523.762 988.32 525.355 990.5C526.973 992.656 527.781 995.234 527.781 998.234C527.781 1002.83 526.293 1006.44 523.316 1009.06C520.34 1011.69 516.133 1013 510.695 1013H492.941ZM499.691 989.059V1007.48H510.836C513.977 1007.48 516.449 1006.67 518.254 1005.05C520.082 1003.41 520.996 1001.16 520.996 998.305C520.996 992.141 517.645 989.059 510.941 989.059H499.691ZM499.691 983.645H509.887C512.84 983.645 515.195 982.906 516.953 981.43C518.734 979.953 519.625 977.949 519.625 975.418C519.625 972.605 518.805 970.566 517.164 969.301C515.523 968.012 513.027 967.367 509.676 967.367H499.691V983.645Z" fill="black" fill-opacity="0.6"/>
<path d="M685.594 996.758C684.961 1002.17 682.957 1006.36 679.582 1009.31C676.23 1012.24 671.766 1013.7 666.188 1013.7C660.141 1013.7 655.289 1011.54 651.633 1007.2C648 1002.86 646.184 997.062 646.184 989.797V984.875C646.184 980.117 647.027 975.934 648.715 972.324C650.426 968.715 652.84 965.949 655.957 964.027C659.074 962.082 662.684 961.109 666.785 961.109C672.223 961.109 676.582 962.633 679.863 965.68C683.145 968.703 685.055 972.898 685.594 978.266H678.809C678.223 974.188 676.945 971.234 674.977 969.406C673.031 967.578 670.301 966.664 666.785 966.664C662.473 966.664 659.086 968.258 656.625 971.445C654.188 974.633 652.969 979.168 652.969 985.051V990.008C652.969 995.562 654.129 999.98 656.449 1003.26C658.77 1006.54 662.016 1008.18 666.188 1008.18C669.938 1008.18 672.809 1007.34 674.801 1005.65C676.816 1003.94 678.152 1000.98 678.809 996.758H685.594Z" fill="black" fill-opacity="0.6"/>
<path d="M804.941 1013V961.812H819.391C823.844 961.812 827.781 962.797 831.203 964.766C834.625 966.734 837.262 969.535 839.113 973.168C840.988 976.801 841.938 980.973 841.961 985.684V988.953C841.961 993.781 841.023 998.012 839.148 1001.64C837.297 1005.28 834.637 1008.07 831.168 1010.01C827.723 1011.96 823.703 1012.95 819.109 1013H804.941ZM811.691 967.367V1007.48H818.793C823.996 1007.48 828.039 1005.86 830.922 1002.63C833.828 999.395 835.281 994.789 835.281 988.812V985.824C835.281 980.012 833.91 975.5 831.168 972.289C828.449 969.055 824.582 967.414 819.566 967.367H811.691Z" fill="black" fill-opacity="0.6"/>
</svg>
